HIERARCHY
ROOT SpineBase
{
  OFFSET 0.000000 0.000000 0.000000
  CHANNELS 6 Xposition Yposition Zposition Zrotation Xrotation Yrotation
  JOINT SpineMid
  {
    OFFSET 0.000000 31.470887 0.000000
    CHANNELS 3 Zrotation Xrotation Yrotation
    JOINT SpineShoulder
    {
      OFFSET -0.111265 23.398013 -1.110079
      CHANNELS 3 Zrotation Xrotation Yrotation
      JOINT Neck
      {
        OFFSET -0.148147 7.735523 -0.672123
        CHANNELS 3 Zrotation Xrotation Yrotation
        JOINT Head
        {
          OFFSET -4.772126 11.841120 4.268682
          CHANNELS 3 Zrotation Xrotation Yrotation
          End Site
          {
            OFFSET 0 0 0
          }
        }
      }
      JOINT ShoulderLeft
      {
        OFFSET -13.027699 -7.533217 45.218354
        CHANNELS 3 Zrotation Xrotation Yrotation
        JOINT ElbowLeft
        {
          OFFSET -0.275296 -29.085661 -6.948715
          CHANNELS 3 Zrotation Xrotation Yrotation
          JOINT WristLeft
          {
            OFFSET 1.309018 -28.492330 -2.612524
            CHANNELS 3 Zrotation Xrotation Yrotation
            JOINT HandLeft
            {
              OFFSET -1.377022 -8.295319 2.960410
              CHANNELS 3 Zrotation Xrotation Yrotation
              JOINT HandTipLeft
              {
                OFFSET 0.307919 -9.013984 0.075761
                CHANNELS 3 Zrotation Xrotation Yrotation
                End Site
                {
                  OFFSET 0 0 0
                }
              }
              JOINT ThumbLeft
              {
                OFFSET -3.719806 3.526804 0.783133
                CHANNELS 3 Zrotation Xrotation Yrotation
                End Site
                {
                  OFFSET 0 0 0
                }
              }
            }
          }
        }
      }
      JOINT ShoulderRight
      {
        OFFSET 8.519881 -2.196356 -12.917900
        CHANNELS 3 Zrotation Xrotation Yrotation
        JOINT ElbowRight
        {
          OFFSET 3.581013 -25.413603 -10.551553
          CHANNELS 3 Zrotation Xrotation Yrotation
          JOINT WristRight
          {
            OFFSET -3.953519 -24.504401 -6.611241
            CHANNELS 3 Zrotation Xrotation Yrotation
            JOINT HandRight
            {
              OFFSET -1.289120 -6.071574 -0.094271
              CHANNELS 3 Zrotation Xrotation Yrotation
              JOINT HandTipRight
              {
                OFFSET -2.137118 -8.193418 -1.893132
                CHANNELS 3 Zrotation Xrotation Yrotation
                End Site
                {
                  OFFSET 0 0 0
                }
              }
              JOINT ThumbRight
              {
                OFFSET -4.053546 2.136926 0.961839
                CHANNELS 3 Zrotation Xrotation Yrotation
                End Site
                {
                  OFFSET 0 0 0
                }
              }
            }
          }
        }
      }
    }
  }
  JOINT HipLeft
  {
    OFFSET -2.601581 0.027768 1.869360
    CHANNELS 3 Zrotation Xrotation Yrotation
    JOINT KneeLeft
    {
      OFFSET 3.564712 -39.574483 -6.695773
      CHANNELS 3 Zrotation Xrotation Yrotation
      JOINT AnkleLeft
      {
        OFFSET 17.340787 -27.675366 -23.693172
        CHANNELS 3 Zrotation Xrotation Yrotation
        JOINT FootLeft
        {
          OFFSET -4.054078 -5.662712 -4.783519
          CHANNELS 3 Zrotation Xrotation Yrotation
          End Site
          {
            OFFSET 0 0 0
          }
        }
      }
    }
  }
  JOINT HipRight
  {
    OFFSET 1.246254 3.759896 -9.237843
    CHANNELS 3 Zrotation Xrotation Yrotation
    JOINT KneeRight
    {
      OFFSET 9.662427 -34.956388 -17.942913
      CHANNELS 3 Zrotation Xrotation Yrotation
      JOINT AnkleRight
      {
        OFFSET 5.517025 -29.204586 -5.937824
        CHANNELS 3 Zrotation Xrotation Yrotation
        JOINT FootRight
        {
          OFFSET -10.666474 -3.236410 -7.346701
          CHANNELS 3 Zrotation Xrotation Yrotation
          End Site
          {
            OFFSET 0 0 0
          }
        }
      }
    }
  }
}
MOTION
Frames: 8
Frame Time: 0.033333
49.101814 78.550615 261.228414 1.045156 2.375639 69.616599 -0.192239 -0.446671 -69.552635 0.123567 0.096317 0.098142 1.819613 0.157043 -0.416641 0.000000 0.000000 0.000000 -9.128466 -20.486914 0.270466 14.699788 20.495600 -5.889557 1.021164 16.204421 -1.289616 -21.255069 -27.260605 -6.511097 0.000000 0.000000 0.000000 0.000000 0.000000 0.000000 -1.527144 -2.131637 -0.201665 1.158749 0.340654 -0.371352 -2.977998 2.667343 -0.211408 0.445402 -3.517245 1.031705 0.000000 0.000000 0.000000 0.000000 0.000000 0.000000 -5.557013 1.149936 -69.486718 -0.150416 -2.257361 -1.340358 66.854295 -48.508543 80.654886 0.000000 0.000000 0.000000 -5.556243 -0.003396 -69.964720 0.870064 2.839352 0.312199 0.085863 0.507772 -1.854564 0.000000 0.000000 0.000000
49.275869 78.449735 260.920101 1.414029 2.898994 69.144605 -0.450171 -0.365745 -69.083503 0.197958 0.257918 0.119137 1.913180 0.133213 -0.391676 0.000000 0.000000 0.000000 -9.800415 -20.892128 0.170877 15.325162 20.336423 -6.122540 -0.679070 13.546940 -1.008340 -16.603586 -23.621841 -4.180675 0.000000 0.000000 0.000000 0.000000 0.000000 0.000000 -1.802981 -2.599724 -0.246969 1.240757 0.265943 -0.380979 -3.634780 3.211730 -0.267089 1.006788 -5.016185 1.399973 0.000000 0.000000 0.000000 0.000000 0.000000 0.000000 -6.716966 1.438992 -68.983948 0.219891 -1.871547 -1.408694 68.625444 -48.191258 79.377045 0.000000 0.000000 0.000000 -6.645820 0.233066 -69.454837 1.152564 3.235123 0.265707 0.108742 0.558589 -2.071701 0.000000 0.000000 0.000000
49.467145 78.328005 260.600491 1.802692 3.441753 68.693571 -0.684416 -0.279926 -68.638383 0.268367 0.395483 0.140842 1.852365 0.007274 -0.351396 0.000000 0.000000 0.000000 -9.765343 -19.336099 0.162551 14.569633 17.512394 -5.469486 -2.271840 10.028138 -0.519908 -11.792787 -17.247675 -2.046676 0.000000 0.000000 0.000000 0.000000 0.000000 0.000000 -2.184549 -2.053489 -0.117111 1.414500 -0.867728 -0.546693 -4.240070 3.272441 -0.226965 2.068950 -4.828696 1.279158 0.000000 0.000000 0.000000 0.000000 0.000000 0.000000 -8.003761 1.467378 -68.559470 0.791778 -0.546539 -1.270217 58.996694 -48.913810 74.339954 0.000000 0.000000 0.000000 -7.824087 0.481374 -68.959647 1.471772 3.680362 0.210649 0.132476 0.569070 -2.160538 0.000000 0.000000 0.000000
49.634609 78.218663 260.317886 2.152286 3.913927 68.331317 -0.836568 -0.200999 -68.283537 0.296132 0.467333 0.157676 1.757606 -0.183387 -0.327044 0.000000 0.000000 0.000000 -9.871934 -18.809092 0.106103 14.115756 15.845581 -5.140330 -2.641497 8.355004 -0.151370 -9.578832 -13.991003 -1.376770 0.000000 0.000000 0.000000 0.000000 0.000000 0.000000 -2.355750 -2.244223 -0.155612 1.408779 -1.193669 -0.547025 -4.814020 3.797836 -0.274872 3.358047 -5.794174 1.414771 0.000000 0.000000 0.000000 0.000000 0.000000 0.000000 -9.004667 2.076866 -68.084185 1.272616 -0.869205 -1.601628 58.132429 -47.947024 69.206466 0.000000 0.000000 0.000000 -8.881999 0.702496 -68.556134 1.763989 4.089374 0.158755 0.154630 0.615840 -2.362878 0.000000 0.000000 0.000000
49.803556 78.115301 260.092291 2.479505 4.293169 68.059229 -0.910177 -0.108827 -68.020261 0.287338 0.477357 0.170036 1.726908 -0.370255 -0.333042 0.000000 0.000000 0.000000 -9.540776 -18.816110 0.015288 13.104346 14.633823 -4.732411 -2.408958 6.606743 0.375506 -8.278752 -10.025884 -1.131416 0.000000 0.000000 0.000000 0.000000 0.000000 0.000000 -2.499858 -2.400382 -0.187335 1.379840 -1.465979 -0.541082 -5.192326 4.208904 -0.316489 3.844189 -6.084552 1.475440 0.000000 0.000000 0.000000 0.000000 0.000000 0.000000 -9.600878 2.291116 -67.789916 1.432155 -0.828505 -1.667797 57.493618 -47.750568 67.847230 0.000000 0.000000 0.000000 -9.780131 0.944693 -68.230240 2.037288 4.433747 0.098995 0.178645 0.690038 -2.657684 0.000000 0.000000 0.000000
49.905019 78.025961 260.025494 2.688732 4.451326 67.943898 -0.849013 -0.043673 -67.908894 0.230669 0.390393 0.173966 1.889758 -0.232368 -0.324332 0.000000 0.000000 0.000000 -8.920526 -19.543804 -0.081212 11.780803 13.922817 -4.368968 -1.480945 6.665510 0.785128 -9.179060 -9.108207 -1.486354 0.000000 0.000000 0.000000 0.000000 0.000000 0.000000 -2.564745 -2.335258 -0.194289 1.319874 -1.744704 -0.533642 -5.593728 4.427661 -0.330018 4.527820 -5.994045 1.422911 0.000000 0.000000 0.000000 0.000000 0.000000 0.000000 -9.360538 1.867261 -67.796940 1.568226 0.441883 -1.278242 57.017646 -49.440566 74.288630 0.000000 0.000000 0.000000 -10.237960 1.153688 -68.060562 2.214578 4.611144 0.047979 0.202680 0.803350 -3.077429 0.000000 0.000000 0.000000
49.942139 77.933548 260.112289 2.792715 4.375654 68.033638 -0.630232 0.001231 -67.995763 0.144222 0.266716 0.172037 2.087082 0.010968 -0.317921 0.000000 0.000000 0.000000 -8.408836 -19.915098 -0.125166 10.897945 13.794457 -4.111844 -1.008717 4.345573 1.403837 -7.899495 -3.830166 -1.387953 0.000000 0.000000 0.000000 0.000000 0.000000 0.000000 -2.597467 -2.165028 -0.184982 1.294375 -1.981805 -0.537636 -5.659398 4.756497 -0.378704 4.256250 -5.966412 1.460018 0.000000 0.000000 0.000000 0.000000 0.000000 0.000000 -8.610256 1.190988 -68.058771 1.395222 1.852819 -0.726735 56.742515 -51.988218 85.004228 0.000000 0.000000 0.000000 -10.197405 1.365940 -68.087941 2.282563 4.575219 0.002290 0.228201 0.865487 -3.335995 0.000000 0.000000 0.000000
49.909909 77.881436 260.318846 2.789070 4.166410 68.320184 -0.263822 0.034845 -68.275666 0.025068 0.106435 0.164620 2.350462 0.156377 -0.349872 0.000000 0.000000 0.000000 -7.942133 -20.723791 -0.166140 10.323686 14.884819 -4.012993 -1.244561 -0.935262 2.227206 -5.398397 5.568247 -1.374156 0.000000 0.000000 0.000000 0.000000 0.000000 0.000000 -2.585719 -2.037762 -0.165436 1.183351 -2.093022 -0.524907 -5.589477 4.948096 -0.439513 4.698736 -6.236609 1.481184 0.000000 0.000000 0.000000 0.000000 0.000000 0.000000 -7.560720 0.283123 -68.550099 1.122433 3.776361 0.041874 55.219809 -55.716915 97.540518 0.000000 0.000000 0.000000 -9.863428 1.490936 -68.349672 2.235900 4.451975 -0.003448 0.242827 0.935629 -3.594186 0.000000 0.000000 0.000000
